<svg width="50" height="69" viewBox="0 0 50 69" fill="none" xmlns="http://www.w3.org/2000/svg">
<path d="M50 25C50 50.5 25 69 25 69C25 69 0 50.5 0 25C0 11.1929 11.1929 0 25 0C38.8071 0 50 11.1929 50 25Z" fill="url(#paint0_linear_1728_20153)"/>
<g clip-path="url(#clip0_1728_20153)">
<path d="M22.5747 41.7867C13.8815 40.3954 7.94981 32.2214 9.35006 23.5838C10.7503 14.9461 18.9768 9.05236 27.6701 10.4437C27.9424 10.4823 28.2146 10.5403 28.4675 10.5983L28.2146 11.8156C27.9618 11.7577 27.7284 11.719 27.4756 11.6804C19.463 10.3857 11.8783 15.835 10.5753 23.7963C9.27227 31.7577 14.7566 39.2939 22.7692 40.5886C30.7818 41.8833 38.3665 36.434 39.6695 28.4727C40.2141 25.1683 39.5917 21.7673 37.9192 18.8688L39.0083 18.2504C40.817 21.3809 41.4976 25.091 40.9142 28.6659C39.4945 37.2842 31.2874 43.1973 22.5747 41.7867Z" fill="white"/>
<path d="M18.8212 32.3948C15.3206 28.9359 15.3206 23.2934 18.8212 19.8344C22.3024 16.3755 27.9813 16.3755 31.4625 19.8344L30.5873 20.704C27.5729 17.7282 22.6914 17.7282 19.6964 20.704C16.7014 23.6798 16.7014 28.5301 19.6964 31.5059C22.6914 34.4818 27.5729 34.4818 30.5679 31.5059C30.7818 31.2934 30.9763 31.0615 31.1707 30.8296L32.1431 31.6026C31.9292 31.8731 31.6958 32.1243 31.443 32.3755C27.9618 35.8538 22.3024 35.8538 18.8212 32.3948Z" fill="white"/>
<path d="M36.0133 20.2205C33.7184 16.0079 29.3037 13.5345 24.4806 13.7471L24.539 14.9838C28.8759 14.7905 32.8627 17.0128 34.9242 20.8002C37.8803 26.2108 35.8577 32.9934 30.4123 35.9306C24.9668 38.8678 18.1406 36.8582 15.1845 31.4475C13.0452 27.5248 13.5314 22.9065 16.0207 19.5248L14.9316 18.8871C12.2284 22.6359 11.7227 27.7374 14.0759 32.0659C17.3626 38.0756 24.9474 40.2978 30.9957 37.0514C37.044 33.7664 39.3 26.2108 36.0133 20.2205Z" fill="white"/>
</g>
<defs>
<linearGradient id="paint0_linear_1728_20153" x1="0" y1="34.5" x2="50" y2="34.5" gradientUnits="userSpaceOnUse">
<stop stop-color="#FF5050"/>
<stop offset="1" stop-color="#CE097F"/>
</linearGradient>
<clipPath id="clip0_1728_20153">
<rect width="32.381" height="40" fill="white" transform="translate(9 10)"/>
</clipPath>
</defs>
</svg>
