<svg viewBox="0 0 148 21" fill="none" xmlns="http://www.w3.org/2000/svg">
<path d="M7.82207 19.1505C5.42207 19.1505 3.5554 18.2616 2.31096 16.5727C1.1554 14.8838 0.62207 13.0172 0.62207 10.4394C0.62207 6.70607 1.68873 4.66162 3.19985 3.15051C4.53318 1.81718 6.04429 1.10608 7.82207 1.10608C9.95541 1.10608 11.2887 1.90607 12.5332 2.97274L11.0221 4.83941C9.77763 3.86163 9.06651 3.41718 7.73318 3.41718C6.39984 3.41718 5.1554 4.21718 4.53318 5.37273C3.91096 6.61717 3.5554 8.48384 3.5554 10.9727C3.5554 14.7949 5.06652 16.9283 7.82207 16.9283C9.24429 16.9283 10.4887 16.3061 11.4665 15.0616L12.9776 16.7505C11.4665 18.5283 9.95541 19.1505 7.82207 19.1505Z" fill="#00294B"/>
<path d="M23.2 19.2394C18.4889 19.2394 15.8223 15.7727 15.8223 10.0838C15.8223 4.48379 18.5778 1.10602 23.1112 1.10602C25.9556 1.10602 27.8223 2.43935 28.9778 4.12824C30.0445 5.63935 30.5778 7.6838 30.5778 10.5282C30.5778 16.2171 27.4667 19.2394 23.2 19.2394ZM26.6667 5.55047C25.9556 4.03936 24.4445 3.32824 23.0223 3.32824C21.5112 3.32824 20.0889 4.03935 19.4667 5.19491C18.9334 6.26158 18.6667 7.6838 18.6667 9.63936C18.6667 12.0394 19.1111 14.1727 19.7334 15.2394C20.3556 16.306 21.6889 16.9283 23.2 16.9283C24.9778 16.9283 26.3112 16.0394 26.9334 14.3505C27.2889 13.2838 27.4667 12.306 27.4667 10.6171C27.4667 8.30603 27.2889 6.70603 26.6667 5.55047Z" fill="#00294B"/>
<path d="M45.1554 18.795V7.23938C45.1554 5.37271 44.9776 4.92827 44.5331 4.39493C44.1776 3.95049 43.4665 3.68382 42.6665 3.68382C41.3332 3.68382 39.1998 4.75048 37.9554 6.08382V18.8839H35.3776V5.63938C35.3776 3.23937 34.7554 1.99493 34.7554 1.99493L37.3332 1.28381C37.3332 1.28381 37.9554 2.52826 37.9554 3.95049C39.7331 2.1727 41.5109 1.28381 43.3776 1.28381C45.2443 1.28381 46.8443 2.2616 47.5554 3.77271C47.822 4.39494 47.9998 5.10605 47.9998 5.72827V18.7061H45.1554V18.795Z" fill="#00294B"/>
<path d="M56.533 1.1949H60.9775L60.1775 3.23935H56.4441V14.5283C56.4441 16.4838 56.9775 17.106 58.6664 17.106C59.4664 17.106 59.9108 17.0172 60.3552 16.7505L60.7108 18.5283C59.8219 18.9727 58.8441 19.2394 57.5997 19.2394C56.7108 19.2394 55.9997 19.0616 55.2886 18.706C54.0441 18.0838 53.5997 17.0172 53.5997 15.2394V3.15046H51.2886V1.10602H53.5997" fill="#00294B"/>
<path d="M70.3109 19.2394C65.5998 19.2394 62.9331 15.7727 62.9331 10.0838C62.9331 4.48379 65.6887 1.10602 70.222 1.10602C73.0665 1.10602 74.9331 2.43935 76.0887 4.12824C77.1554 5.63935 77.6887 7.6838 77.6887 10.5282C77.6887 16.2171 74.5776 19.2394 70.3109 19.2394ZM73.8665 5.55047C73.1554 4.03936 71.6442 3.32824 70.222 3.32824C68.7109 3.32824 67.2887 4.03935 66.6664 5.19491C66.1331 6.26158 65.8664 7.6838 65.8664 9.63936C65.8664 12.0394 66.3109 14.1727 66.9331 15.2394C67.5553 16.306 68.8887 16.9283 70.3998 16.9283C72.1776 16.9283 73.5109 16.0394 74.1331 14.3505C74.4887 13.2838 74.6665 12.306 74.6665 10.6171C74.5776 8.30603 74.3998 6.70603 73.8665 5.55047Z" fill="#00294B"/>
<path d="M88.5334 18.9727H85.8667L79.7334 1.81716L82.489 1.19495L86.489 13.0171C86.9334 14.4394 87.2889 15.9505 87.2889 15.9505H87.3778C87.3778 15.9505 87.6445 14.6171 88.1778 13.0171L92.089 1.63939H94.9334L88.5334 18.9727Z" fill="#00294B"/>
<path d="M98.5776 18.7949V1.72826L101.333 1.28381V18.7949H98.5776Z" fill="#00294B"/>
<path d="M111.911 19.3282C109.778 19.3282 107.378 18.706 105.6 17.6393L106.667 15.6838C108.445 16.7505 110.222 17.2838 112.089 17.2838C114.222 17.2838 115.556 16.1282 115.556 14.3505C115.556 12.8393 114.667 11.9505 112.711 11.506L110.578 11.0616C107.733 10.4394 106.222 8.75046 106.222 6.35046C106.222 3.23935 108.711 1.10602 112.356 1.10602C114.133 1.10602 116.178 1.63934 117.6 2.52823L116.622 4.48379C115.111 3.77267 113.867 3.23935 112.356 3.23935C110.4 3.23935 109.156 4.3949 109.156 6.08379C109.156 7.41712 109.778 8.21713 111.645 8.57268L113.956 9.01713C117.067 9.63935 118.489 11.2393 118.489 13.8171C118.4 17.0171 115.733 19.3282 111.911 19.3282Z" fill="#00294B"/>
<path d="M126.133 1.63937H130.4L129.6 3.68382H126.044V14.706C126.044 16.5727 126.577 17.2838 128.266 17.2838C129.066 17.2838 129.511 17.1949 129.955 16.9282L130.311 18.6171C129.422 19.0616 128.444 19.3282 127.289 19.3282C126.4 19.3282 125.689 19.1505 125.066 18.8838C123.822 18.2616 123.377 17.1949 123.377 15.506V3.77271H121.155V1.72827H123.377" fill="#00294B"/>
<path d="M145.866 19.4172C144.711 19.0616 143.822 18.0838 143.555 16.9283C141.866 18.6172 140.533 19.2394 138.578 19.2394C134.311 19.2394 133.066 16.6616 133.066 14.3505C133.066 10.4394 136.444 8.21718 142.133 8.21718C142.844 8.21718 143.378 8.21718 143.378 8.21718V6.97273C143.378 5.46161 143.289 4.83939 142.844 4.30606C142.311 3.68384 141.6 3.41717 140.533 3.41717C138.578 3.41717 136.178 4.48384 135.022 5.46162L133.689 3.50606C136 1.99495 138.4 1.19495 140.889 1.19495C143.289 1.19495 144.889 2.08384 145.6 3.86161C145.955 4.7505 146.044 6.08384 145.955 7.68384L145.778 13.2838C145.689 16.0394 145.866 16.7505 147.111 17.4616L145.866 19.4172ZM141.955 9.99496C137.6 9.99496 136.089 11.5061 136.089 14.0838C136.089 16.1283 137.066 17.195 139.022 17.195C140.8 17.195 142.4 16.1283 143.2 14.5283L143.289 10.0838C142.844 10.0838 142.489 9.99496 141.955 9.99496Z" fill="#00294B"/>
<path d="M7.82207 19.1505C5.42207 19.1505 3.5554 18.2616 2.31096 16.5727C1.1554 14.8838 0.62207 13.0172 0.62207 10.4394C0.62207 6.70607 1.68873 4.66162 3.19985 3.15051C4.53318 1.81718 6.04429 1.10608 7.82207 1.10608C9.95541 1.10608 11.2887 1.90607 12.5332 2.97274L11.0221 4.83941C9.77763 3.86163 9.06651 3.41718 7.73318 3.41718C6.39984 3.41718 5.1554 4.21718 4.53318 5.37273C3.91096 6.61717 3.5554 8.48384 3.5554 10.9727C3.5554 14.7949 5.06652 16.9283 7.82207 16.9283C9.24429 16.9283 10.4887 16.3061 11.4665 15.0616L12.9776 16.7505C11.4665 18.5283 9.95541 19.1505 7.82207 19.1505Z" fill="#00294B"/>
<path d="M23.2 19.2394C18.4889 19.2394 15.8223 15.7727 15.8223 10.0838C15.8223 4.48379 18.5778 1.10602 23.1112 1.10602C25.9556 1.10602 27.8223 2.43935 28.9778 4.12824C30.0445 5.63935 30.5778 7.6838 30.5778 10.5282C30.5778 16.2171 27.4667 19.2394 23.2 19.2394ZM26.6667 5.55047C25.9556 4.03936 24.4445 3.32824 23.0223 3.32824C21.5112 3.32824 20.0889 4.03935 19.4667 5.19491C18.9334 6.26158 18.6667 7.6838 18.6667 9.63936C18.6667 12.0394 19.1111 14.1727 19.7334 15.2394C20.3556 16.306 21.6889 16.9283 23.2 16.9283C24.9778 16.9283 26.3112 16.0394 26.9334 14.3505C27.2889 13.2838 27.4667 12.306 27.4667 10.6171C27.4667 8.30603 27.2889 6.70603 26.6667 5.55047Z" fill="#00294B"/>
<path d="M45.1554 18.795V7.23938C45.1554 5.37271 44.9776 4.92827 44.5331 4.39493C44.1776 3.95049 43.4665 3.68382 42.6665 3.68382C41.3332 3.68382 39.1998 4.75048 37.9554 6.08382V18.8839H35.3776V5.63938C35.3776 3.23937 34.7554 1.99493 34.7554 1.99493L37.3332 1.28381C37.3332 1.28381 37.9554 2.52826 37.9554 3.95049C39.7331 2.1727 41.5109 1.28381 43.3776 1.28381C45.2443 1.28381 46.8443 2.2616 47.5554 3.77271C47.822 4.39494 47.9998 5.10605 47.9998 5.72827V18.7061H45.1554V18.795Z" fill="#00294B"/>
<path d="M56.533 1.1949H60.9775L60.1775 3.23935H56.4441V14.5283C56.4441 16.4838 56.9775 17.106 58.6664 17.106C59.4664 17.106 59.9108 17.0172 60.3552 16.7505L60.7108 18.5283C59.8219 18.9727 58.8441 19.2394 57.5997 19.2394C56.7108 19.2394 55.9997 19.0616 55.2886 18.706C54.0441 18.0838 53.5997 17.0172 53.5997 15.2394V3.15046H51.2886V1.10602H53.5997" fill="#00294B"/>
<path d="M70.3109 19.2394C65.5998 19.2394 62.9331 15.7727 62.9331 10.0838C62.9331 4.48379 65.6887 1.10602 70.222 1.10602C73.0665 1.10602 74.9331 2.43935 76.0887 4.12824C77.1554 5.63935 77.6887 7.6838 77.6887 10.5282C77.6887 16.2171 74.5776 19.2394 70.3109 19.2394ZM73.8665 5.55047C73.1554 4.03936 71.6442 3.32824 70.222 3.32824C68.7109 3.32824 67.2887 4.03935 66.6664 5.19491C66.1331 6.26158 65.8664 7.6838 65.8664 9.63936C65.8664 12.0394 66.3109 14.1727 66.9331 15.2394C67.5553 16.306 68.8887 16.9283 70.3998 16.9283C72.1776 16.9283 73.5109 16.0394 74.1331 14.3505C74.4887 13.2838 74.6665 12.306 74.6665 10.6171C74.5776 8.30603 74.3998 6.70603 73.8665 5.55047Z" fill="#00294B"/>
<path d="M88.5334 18.9727H85.8667L79.7334 1.81716L82.489 1.19495L86.489 13.0171C86.9334 14.4394 87.2889 15.9505 87.2889 15.9505H87.3778C87.3778 15.9505 87.6445 14.6171 88.1778 13.0171L92.089 1.63939H94.9334L88.5334 18.9727Z" fill="#00294B"/>
<path d="M98.5776 18.7949V1.72826L101.333 1.28381V18.7949H98.5776Z" fill="#00294B"/>
<path d="M111.911 19.3282C109.778 19.3282 107.378 18.706 105.6 17.6393L106.667 15.6838C108.445 16.7505 110.222 17.2838 112.089 17.2838C114.222 17.2838 115.556 16.1282 115.556 14.3505C115.556 12.8393 114.667 11.9505 112.711 11.506L110.578 11.0616C107.733 10.4394 106.222 8.75046 106.222 6.35046C106.222 3.23935 108.711 1.10602 112.356 1.10602C114.133 1.10602 116.178 1.63934 117.6 2.52823L116.622 4.48379C115.111 3.77267 113.867 3.23935 112.356 3.23935C110.4 3.23935 109.156 4.3949 109.156 6.08379C109.156 7.41712 109.778 8.21713 111.645 8.57268L113.956 9.01713C117.067 9.63935 118.489 11.2393 118.489 13.8171C118.4 17.0171 115.733 19.3282 111.911 19.3282Z" fill="#00294B"/>
<path d="M126.133 1.63937H130.4L129.6 3.68382H126.044V14.706C126.044 16.5727 126.577 17.2838 128.266 17.2838C129.066 17.2838 129.511 17.1949 129.955 16.9282L130.311 18.6171C129.422 19.0616 128.444 19.3282 127.289 19.3282C126.4 19.3282 125.689 19.1505 125.066 18.8838C123.822 18.2616 123.377 17.1949 123.377 15.506V3.77271H121.155V1.72827H123.377" fill="#00294B"/>
<path d="M145.866 19.4172C144.711 19.0616 143.822 18.0838 143.555 16.9283C141.866 18.6172 140.533 19.2394 138.578 19.2394C134.311 19.2394 133.066 16.6616 133.066 14.3505C133.066 10.4394 136.444 8.21718 142.133 8.21718C142.844 8.21718 143.378 8.21718 143.378 8.21718V6.97273C143.378 5.46161 143.289 4.83939 142.844 4.30606C142.311 3.68384 141.6 3.41717 140.533 3.41717C138.578 3.41717 136.178 4.48384 135.022 5.46162L133.689 3.50606C136 1.99495 138.4 1.19495 140.889 1.19495C143.289 1.19495 144.889 2.08384 145.6 3.86161C145.955 4.7505 146.044 6.08384 145.955 7.68384L145.778 13.2838C145.689 16.0394 145.866 16.7505 147.111 17.4616L145.866 19.4172ZM141.955 9.99496C137.6 9.99496 136.089 11.5061 136.089 14.0838C136.089 16.1283 137.066 17.195 139.022 17.195C140.8 17.195 142.4 16.1283 143.2 14.5283L143.289 10.0838C142.844 10.0838 142.489 9.99496 141.955 9.99496Z" fill="#00294B"/>
</svg>
