<svg width="217" height="156" viewBox="0 0 217 156" fill="none" xmlns="http://www.w3.org/2000/svg">
<path d="M98.1142 142C137.165 142 168.822 110.212 168.822 71C168.822 31.7877 137.165 0 98.1142 0C59.0634 0 27.4062 31.7877 27.4062 71C27.4062 110.212 59.0634 142 98.1142 142Z" fill="#F2F4F6"/>
<g filter="url(#filter0_d_1104_3300)">
<path d="M173.944 28.0001V118.143C173.944 120.429 172.095 122.286 169.676 122.286H26.2681C23.8495 122.286 22 120.429 22 118.143V28.0001C22 25.7143 23.8495 23.8572 26.2681 23.8572H169.676C172.095 23.8572 173.944 25.7143 173.944 28.0001Z" fill="white"/>
</g>
<path d="M163.132 114.714H69.9448C67.5261 114.714 65.5344 112.714 65.5344 110.286V41.2856C65.5344 38.857 67.5261 36.8569 69.9448 36.8569H163.132C165.55 36.8569 167.542 38.857 167.542 41.2856V110.428C167.399 112.857 165.55 114.714 163.132 114.714Z" fill="#E6EDF5"/>
<path d="M29.2558 32.2855C30.2772 32.2855 31.1053 31.454 31.1053 30.4284C31.1053 29.4027 30.2772 28.5713 29.2558 28.5713C28.2343 28.5713 27.4062 29.4027 27.4062 30.4284C27.4062 31.454 28.2343 32.2855 29.2558 32.2855Z" fill="#E6ECF5"/>
<path d="M34.5199 32.2855C35.5413 32.2855 36.3694 31.454 36.3694 30.4284C36.3694 29.4027 35.5413 28.5713 34.5199 28.5713C33.4983 28.5713 32.6703 29.4027 32.6703 30.4284C32.6703 31.454 33.4983 32.2855 34.5199 32.2855Z" fill="#E6ECF5"/>
<path d="M39.9261 32.2855C40.9475 32.2855 41.7756 31.454 41.7756 30.4284C41.7756 29.4027 40.9475 28.5713 39.9261 28.5713C38.9045 28.5713 38.0766 29.4027 38.0766 30.4284C38.0766 31.454 38.9045 32.2855 39.9261 32.2855Z" fill="#E6ECF5"/>
<path d="M125.003 47.2858H75.4934C74.9244 47.2858 74.6398 46.8572 74.6398 46.4286C74.6398 45.8573 75.0666 45.5715 75.4934 45.5715H125.003C125.572 45.5715 125.857 46.0001 125.857 46.4286C125.999 46.8572 125.572 47.2858 125.003 47.2858Z" fill="#CED7E2"/>
<path d="M125.003 52.4286H75.4934C74.9244 52.4286 74.6398 52 74.6398 51.5714C74.6398 51.0001 75.0666 50.7144 75.4934 50.7144H125.003C125.572 50.7144 125.857 51.143 125.857 51.5714C125.999 52 125.572 52.4286 125.003 52.4286Z" fill="#CED7E2"/>
<path d="M100.391 58.0002H75.4934C74.9244 58.0002 74.6398 57.5716 74.6398 57.143C74.6398 56.5716 75.0666 56.2859 75.4934 56.2859H100.391C100.96 56.2859 101.244 56.7145 101.244 57.143C101.387 57.5716 100.96 58.0002 100.391 58.0002Z" fill="#22ECBB"/>
<path d="M57.5674 116H30.5361C28.8289 116 27.5484 114.714 27.5484 113V39.5715C27.5484 37.8572 28.8289 36.5715 30.5361 36.5715H57.5674C59.2746 36.5715 60.5551 37.8572 60.5551 39.5715V112.857C60.5551 114.572 59.2746 116 57.5674 116Z" fill="#00294B"/>
<path d="M44.0519 46.7142C45.859 46.7142 47.324 45.2432 47.324 43.4285C47.324 41.614 45.859 40.1428 44.0519 40.1428C42.2447 40.1428 40.7797 41.614 40.7797 43.4285C40.7797 45.2432 42.2447 46.7142 44.0519 46.7142Z" fill="#455B73"/>
<path d="M54.5796 50.7155H33.6659C33.3814 50.7155 33.0969 50.4295 33.0969 50.1434C33.0969 49.8576 33.3814 49.5715 33.6659 49.5715H54.4373C54.7219 49.5715 55.0064 49.8576 55.0064 50.1434C55.1487 50.4295 54.8641 50.7155 54.5796 50.7155Z" fill="#455B73"/>
<path d="M54.5796 55.001H33.6659C33.3814 55.001 33.0969 54.7151 33.0969 54.4291C33.0969 54.1431 33.3814 53.8572 33.6659 53.8572H54.4373C54.7219 53.8572 55.0064 54.1431 55.0064 54.4291C55.1487 54.7151 54.8641 55.001 54.5796 55.001Z" fill="#455B73"/>
<path d="M54.5796 62.5727H33.6659C33.3814 62.5727 33.0969 62.2866 33.0969 62.0006C33.0969 61.7147 33.3814 61.4287 33.6659 61.4287H54.4373C54.7219 61.4287 55.0064 61.7147 55.0064 62.0006C55.1487 62.2866 54.8641 62.5727 54.5796 62.5727Z" fill="#455B73"/>
<path d="M41.2063 67.0012H33.5237C33.3814 67.0012 33.0969 66.8582 33.0969 66.5723V66.1433C33.0969 66.0002 33.2391 65.7144 33.5237 65.7144H41.2063C41.3486 65.7144 41.633 65.8574 41.633 66.1433V66.5723C41.633 66.8582 41.4907 67.0012 41.2063 67.0012Z" fill="#455B73"/>
<path d="M54.5796 75.0011H33.6659C33.3814 75.0011 33.0969 74.7151 33.0969 74.4291C33.0969 74.1432 33.3814 73.8572 33.6659 73.8572H54.4373C54.7219 73.8572 55.0064 74.1432 55.0064 74.4291C55.1487 74.7151 54.8641 75.0011 54.5796 75.0011Z" fill="#455B73"/>
<path d="M41.2063 79.4297H33.5237C33.3814 79.4297 33.0969 79.2867 33.0969 79.0008V78.5717C33.0969 78.4287 33.2391 78.1428 33.5237 78.1428H41.2063C41.3486 78.1428 41.633 78.2857 41.633 78.5717V79.0008C41.633 79.1438 41.4907 79.4297 41.2063 79.4297Z" fill="#455B73"/>
<path d="M54.5796 87.2868H33.6659C33.3814 87.2868 33.0969 87.0008 33.0969 86.7147C33.0969 86.4289 33.3814 86.1428 33.6659 86.1428H54.4373C54.7219 86.1428 55.0064 86.4289 55.0064 86.7147C55.1487 87.0008 54.8641 87.2868 54.5796 87.2868Z" fill="#455B73"/>
<path d="M41.2063 91.7154H33.5237C33.3814 91.7154 33.0969 91.5724 33.0969 91.2865V90.8575C33.0969 90.7145 33.2391 90.4285 33.5237 90.4285H41.2063C41.3486 90.4285 41.633 90.5715 41.633 90.8575V91.2865C41.633 91.5724 41.4907 91.7154 41.2063 91.7154Z" fill="#22ECBB"/>
<g filter="url(#filter1_d_1104_3300)">
<path d="M194.573 73.2856L195 107.143C195 108.286 194.004 109.286 192.866 109.286H160.002C158.863 109.286 157.867 108.286 157.867 107.143V63.7142C157.867 62.5714 158.863 61.5713 160.002 61.5713H183.903L194.573 73.2856Z" fill="white"/>
</g>
<path d="M173.944 102.572H172.806C172.522 102.572 172.379 102.286 172.379 102.143C172.379 101.857 172.664 101.714 172.806 101.714H173.944C174.228 101.714 174.371 102 174.371 102.143C174.513 102.286 174.228 102.572 173.944 102.572Z" fill="#E3EAF2"/>
<path d="M170.672 102.572H163.7C163.416 102.572 163.273 102.286 163.273 102.143C163.273 101.857 163.559 101.714 163.7 101.714H170.672C170.956 101.714 171.099 102 171.099 102.143C171.099 102.286 170.956 102.572 170.672 102.572Z" fill="#E3EAF2"/>
<path d="M179.777 68.7159H163.985C163.559 68.7159 163.273 68.4299 163.273 68.001C163.273 67.5719 163.559 67.2859 163.985 67.2859H179.777C180.204 67.2859 180.488 67.5719 180.488 68.001C180.347 68.4299 180.061 68.7159 179.777 68.7159Z" fill="#CED7E2"/>
<path d="M169.961 72.4299H163.985C163.559 72.4299 163.273 72.144 163.273 71.7149C163.273 71.286 163.559 71 163.985 71H169.961C170.388 71 170.672 71.286 170.672 71.7149C170.672 72.144 170.388 72.4299 169.961 72.4299Z" fill="#CED7E2"/>
<path d="M183.903 61.5713V70.8571C183.903 72.1428 185.041 73.2856 186.321 73.2856H194.573" fill="#CED7E2"/>
<path d="M189.31 79.5715H181.058H172.522H164.555C163.701 79.5715 162.989 80.2859 162.989 81.143V95.5716C162.989 96.4287 163.701 97.143 164.555 97.143H189.31C190.163 97.143 190.874 96.4287 190.874 95.5716V81.2858C191.017 80.2859 190.304 79.5715 189.31 79.5715ZM173.091 92.2859V89.0002H180.631V92.2859H173.091ZM180.631 93.2858V96.2858H173.091V93.2858H180.631ZM180.631 84.8573V88.143H173.091V84.8573H180.631ZM173.091 83.8573V80.5716H180.631V83.8573H173.091ZM190.021 88.143H181.627V84.8573H190.021V88.143ZM172.095 88.143H163.985V84.8573H172.095V88.143ZM163.985 89.1431H172.095V92.4288H163.985V89.1431ZM181.627 89.1431H190.021V92.4288H181.627V89.1431ZM190.021 81.2858V84.0002H181.627V80.7145H189.31C189.736 80.5716 190.021 80.8574 190.021 81.2858ZM164.555 80.5716H172.095V83.8573H163.985V81.143C163.985 80.8572 164.269 80.5716 164.555 80.5716ZM163.985 95.5716V93.2858H172.095V96.2858H164.555C164.269 96.2858 163.985 96.0002 163.985 95.5716ZM189.31 96.2858H181.627V93.2858H190.021V95.5716C190.021 96.0002 189.736 96.2858 189.31 96.2858Z" fill="#E3EAF2"/>
<path d="M167.969 89.1429H150.327C149.474 89.1429 148.62 88.4287 148.62 87.4286V79.4286C148.62 78.5714 149.331 77.7144 150.327 77.7144H167.969C168.822 77.7144 169.676 78.4286 169.676 79.4286V87.4286C169.676 88.4287 168.822 89.1429 167.969 89.1429Z" fill="url(#paint0_linear_1104_3300)"/>
<path d="M154.026 83.4285L152.461 81H153.6L154.596 82.7143L155.591 81H156.73L155.164 83.4285L156.73 85.8571H155.591L154.596 84.1428L153.6 85.8571H152.603L154.026 83.4285Z" fill="white"/>
<path d="M161.282 85.8571H158.152V81H159.149V85.0001H161.282V85.8571Z" fill="white"/>
<path d="M163.273 84.5718C163.273 85.0003 163.701 85.286 164.269 85.286C164.839 85.286 165.123 85.0003 165.123 84.7146C165.123 84.429 164.839 84.2861 164.269 84.1432L163.701 84.0004C162.847 83.8575 162.42 83.286 162.42 82.7147C162.42 81.8575 163.132 81.2861 164.269 81.2861C165.408 81.2861 166.119 81.8575 166.119 82.7147H165.123C165.123 82.2861 164.696 82.0003 164.269 82.0003C163.701 82.0003 163.416 82.2861 163.416 82.5718C163.416 82.8575 163.701 83.0004 164.269 83.1431L164.839 83.286C165.835 83.4289 166.262 83.8575 166.262 84.7146C166.262 85.7146 165.55 86.2861 164.269 86.2861C163.132 86.2861 162.42 85.7146 162.279 84.8574H163.273V84.5718Z" fill="white"/>
<path d="M91.9967 73.1428L92.4235 107.143C92.4235 108.286 91.4277 109.286 90.2895 109.286H57.4252C56.2871 109.286 55.2912 108.286 55.2912 107.143V63.4284C55.2912 62.2856 56.2871 61.2856 57.4252 61.2856H81.3265L91.9967 73.1428Z" fill="white"/>
<path d="M86.3059 96.5721H66.5304C66.2458 96.5721 66.1037 96.286 66.1037 96.143C66.1037 95.8571 66.3881 95.7141 66.5304 95.7141H86.3059C86.5905 95.7141 86.7328 96 86.7328 96.143C86.7328 96.286 86.5905 96.5721 86.3059 96.5721Z" fill="#E3EAF2"/>
<path d="M64.112 96.5721H60.6975C60.4129 96.5721 60.2706 96.286 60.2706 96.143C60.2706 95.8571 60.5552 95.7141 60.6975 95.7141H64.112C64.3965 95.7141 64.5388 96 64.5388 96.143C64.5388 96.286 64.3965 96.5721 64.112 96.5721Z" fill="#E3EAF2"/>
<path d="M86.1639 91.2865H77.3431C77.0587 91.2865 76.9164 91.0005 76.9164 90.8575C76.9164 90.7145 77.201 90.4285 77.3431 90.4285H86.1639C86.4484 90.4285 86.5907 90.7145 86.5907 90.8575C86.5907 91.0005 86.4484 91.2865 86.1639 91.2865Z" fill="#E3EAF2"/>
<path d="M73.6441 91.2865H60.6975C60.4129 91.2865 60.2706 91.0005 60.2706 90.8575C60.2706 90.7145 60.5552 90.4285 60.6975 90.4285H73.6441C73.9285 90.4285 74.0708 90.7145 74.0708 90.8575C74.0708 91.0005 73.9285 91.2865 73.6441 91.2865Z" fill="#E3EAF2"/>
<path d="M86.4483 85.8579H83.0339C82.7493 85.8579 82.6071 85.5719 82.6071 85.4289C82.6071 85.286 82.8916 85 83.0339 85H86.4483C86.7329 85 86.8752 85.286 86.8752 85.4289C86.8752 85.5719 86.7329 85.8579 86.4483 85.8579Z" fill="#E3EAF2"/>
<path d="M79.7618 85.8579H60.9822C60.6976 85.8579 60.5553 85.5719 60.5553 85.4289C60.5553 85.286 60.8399 85 60.9822 85H79.7618C80.0463 85 80.1885 85.286 80.1885 85.4289C80.1885 85.5719 80.0463 85.8579 79.7618 85.8579Z" fill="#E3EAF2"/>
<path d="M71.3677 102.429H70.0874C69.8028 102.429 69.6605 102.143 69.6605 102C69.6605 101.714 69.9451 101.571 70.0874 101.571H71.2256C71.51 101.571 71.6523 101.857 71.6523 102C71.7946 102.143 71.6523 102.429 71.3677 102.429Z" fill="#E3EAF2"/>
<path d="M67.9534 102.429H60.9822C60.6976 102.429 60.5553 102.143 60.5553 102C60.5553 101.714 60.8399 101.571 60.9822 101.571H67.9534C68.2379 101.571 68.3802 101.857 68.3802 102C68.5224 102.143 68.2379 102.429 67.9534 102.429Z" fill="#E3EAF2"/>
<path d="M86.5905 80.5723H74.3553C74.0708 80.5723 73.9285 80.2864 73.9285 80.1434C73.9285 80.0004 74.213 79.7144 74.3553 79.7144H86.4483C86.7328 79.7144 86.875 80.0004 86.875 80.1434C86.875 80.2864 86.875 80.5723 86.5905 80.5723Z" fill="#E3EAF2"/>
<path d="M70.514 80.5723H61.1242C60.8396 80.5723 60.6974 80.2864 60.6974 80.1434C60.6974 80.0004 60.9819 79.7144 61.1242 79.7144H70.514C70.7985 79.7144 70.9408 80.0004 70.9408 80.1434C70.9408 80.2864 70.7985 80.5723 70.514 80.5723Z" fill="#E3EAF2"/>
<path d="M77.0586 68.4299H61.2668C60.8399 68.4299 60.5553 68.144 60.5553 67.7149C60.5553 67.2859 60.8399 67 61.2668 67H77.0586C77.4855 67 77.77 67.2859 77.77 67.7149C77.77 68.144 77.4855 68.4299 77.0586 68.4299Z" fill="#CED7E2"/>
<path d="M67.384 72.287H61.4088C60.9819 72.287 60.6974 72.001 60.6974 71.5721C60.6974 71.1431 60.9819 70.8572 61.4088 70.8572H67.384C67.8109 70.8572 68.0954 71.1431 68.0954 71.5721C67.9532 72.001 67.6686 72.287 67.384 72.287Z" fill="#CED7E2"/>
<path d="M81.1843 61.2856V70.7142C81.1843 71.9998 82.3225 73.1428 83.603 73.1428H91.8545" fill="#CED7E2"/>
<path d="M65.3925 88.9998H47.7509C46.8973 88.9998 46.0437 88.2855 46.0437 87.2855V79.2856C46.0437 78.4284 46.7552 77.5713 47.7509 77.5713H65.3925C66.2461 77.5713 67.0997 78.2855 67.0997 79.2856V87.2855C66.9574 88.2855 66.2461 88.9998 65.3925 88.9998Z" fill="url(#paint1_linear_1104_3300)"/>
<path d="M52.1613 80.8569C53.1572 80.8569 53.8685 81.5713 53.8685 82.5712C53.8685 83.5713 53.1572 84.2855 52.1613 84.2855H51.1654V85.7141H50.1696V80.8569H52.1613ZM51.1654 83.4284H51.8768C52.4459 83.4284 52.7304 83.1427 52.7304 82.5712C52.7304 81.9999 52.4459 81.7141 51.8768 81.7141H51.1654V83.4284Z" fill="white"/>
<path d="M56.8562 80.8569C58.2788 80.8569 59.1324 81.7142 59.1324 83.2856C59.1324 84.857 58.4211 85.7141 56.8562 85.7141H55.0067V80.8569H56.8562ZM56.0026 84.857H56.7139C57.5675 84.857 58.1365 84.2855 58.1365 83.2856C58.1365 82.2856 57.5675 81.7141 56.7139 81.7141H56.0026V84.857Z" fill="white"/>
<path d="M60.4129 85.7141V80.8569H63.5428V81.7141H61.551V82.9998H63.5428V83.857H61.551V85.7141H60.4129Z" fill="white"/>
<path d="M143.071 73.1428L143.498 107.143C143.498 108.286 142.503 109.286 141.364 109.286H108.5C107.362 109.286 106.366 108.286 106.366 107.143V63.4284C106.366 62.2856 107.362 61.2856 108.5 61.2856H132.401L143.071 73.1428Z" fill="white"/>
<path d="M137.381 96.5721H117.605C117.321 96.5721 117.178 96.286 117.178 96.143C117.178 95.8571 117.463 95.7141 117.605 95.7141H137.381C137.665 95.7141 137.808 96 137.808 96.143C137.808 96.286 137.665 96.5721 137.381 96.5721Z" fill="#E3EAF2"/>
<path d="M115.187 96.5721H111.772C111.488 96.5721 111.345 96.286 111.345 96.143C111.345 95.8571 111.63 95.7141 111.772 95.7141H115.187C115.471 95.7141 115.614 96 115.614 96.143C115.614 96.286 115.471 96.5721 115.187 96.5721Z" fill="#E3EAF2"/>
<path d="M137.238 91.1436H128.418C128.133 91.1436 127.991 90.8577 127.991 90.7147C127.991 90.4287 128.276 90.2856 128.418 90.2856H137.238C137.524 90.2856 137.665 90.5717 137.665 90.7147C137.808 91.0006 137.524 91.1436 137.238 91.1436Z" fill="#E3EAF2"/>
<path d="M124.719 91.1436H111.914C111.63 91.1436 111.488 90.8577 111.488 90.7147C111.488 90.4287 111.772 90.2856 111.914 90.2856H124.719C125.003 90.2856 125.145 90.5717 125.145 90.7147C125.288 91.0006 125.003 91.1436 124.719 91.1436Z" fill="#E3EAF2"/>
<path d="M137.381 85.8579H133.966C133.682 85.8579 133.539 85.5719 133.539 85.4289C133.539 85.286 133.824 85 133.966 85H137.381C137.665 85 137.808 85.286 137.808 85.4289C137.808 85.5719 137.665 85.8579 137.381 85.8579Z" fill="#E3EAF2"/>
<path d="M130.836 85.8579H112.057C111.772 85.8579 111.63 85.5719 111.63 85.4289C111.63 85.286 111.914 85 112.057 85H130.836C131.121 85 131.263 85.286 131.263 85.4289C131.263 85.5719 131.121 85.8579 130.836 85.8579Z" fill="#E3EAF2"/>
<path d="M122.442 102.429H121.304C121.02 102.429 120.877 102.143 120.877 102C120.877 101.857 121.162 101.571 121.304 101.571H122.442C122.727 101.571 122.869 101.857 122.869 102C122.869 102.143 122.727 102.429 122.442 102.429Z" fill="#E3EAF2"/>
<path d="M119.028 102.429H112.057C111.772 102.429 111.63 102.143 111.63 102C111.63 101.857 111.914 101.571 112.057 101.571H119.028C119.313 101.571 119.455 101.857 119.455 102C119.455 102.143 119.313 102.429 119.028 102.429Z" fill="#E3EAF2"/>
<path d="M137.665 80.5723H125.572C125.288 80.5723 125.146 80.2864 125.146 80.1434C125.146 80.0004 125.43 79.7144 125.572 79.7144H137.665C137.95 79.7144 138.092 80.0004 138.092 80.1434C138.092 80.2864 137.95 80.5723 137.665 80.5723Z" fill="#E3EAF2"/>
<path d="M121.589 80.5723H112.199C111.915 80.5723 111.772 80.2864 111.772 80.1434C111.772 80.0004 112.057 79.7144 112.199 79.7144H121.589C121.873 79.7144 122.016 80.0004 122.016 80.1434C122.016 80.2864 121.873 80.5723 121.589 80.5723Z" fill="#E3EAF2"/>
<path d="M128.133 68.4299H112.341C111.914 68.4299 111.63 68.144 111.63 67.7149C111.63 67.2859 111.914 67 112.341 67H128.133C128.56 67 128.845 67.2859 128.845 67.7149C128.845 68.144 128.56 68.4299 128.133 68.4299Z" fill="#CED7E2"/>
<path d="M118.459 72.287H112.484C112.057 72.287 111.772 72.001 111.772 71.5721C111.772 71.1431 112.057 70.8572 112.484 70.8572H118.459C118.886 70.8572 119.17 71.1431 119.17 71.5721C119.028 72.001 118.743 72.287 118.459 72.287Z" fill="#CED7E2"/>
<path d="M132.259 61.2856V70.7142C132.259 71.9998 133.397 73.1428 134.678 73.1428H142.93" fill="#CED7E2"/>
<path d="M116.467 88.9998H98.8256C97.972 88.9998 97.1183 88.2855 97.1183 87.2855V79.2856C97.1183 78.4284 97.8297 77.5713 98.8256 77.5713H116.467C117.321 77.5713 118.174 78.2855 118.174 79.2856V87.2855C118.032 88.2855 117.321 88.9998 116.467 88.9998Z" fill="url(#paint2_linear_1104_3300)"/>
<path d="M102.098 80.8572C103.521 80.8572 104.374 81.7143 104.374 83.2857C104.374 84.8571 103.521 85.7143 102.098 85.7143H100.248V80.8572H102.098ZM101.244 84.8571H101.956C102.809 84.8571 103.378 84.2858 103.378 83.2857C103.378 82.2857 102.809 81.7143 101.956 81.7143H101.244V84.8571Z" fill="white"/>
<path d="M110.065 83.2859C110.065 84.8573 109.212 85.8572 107.789 85.8572C106.366 85.8572 105.513 84.8573 105.513 83.2859C105.513 81.7144 106.366 80.7144 107.789 80.7144C109.212 80.7144 110.065 81.7144 110.065 83.2859ZM106.508 83.2859C106.508 84.2858 107.078 85.0001 107.789 85.0001C108.643 85.0001 109.069 84.4287 109.069 83.2859C109.069 82.2858 108.5 81.5716 107.789 81.5716C106.935 81.5716 106.508 82.2858 106.508 83.2859Z" fill="white"/>
<path d="M111.203 83.2859C111.203 81.7144 112.057 80.7144 113.479 80.7144C114.618 80.7144 115.471 81.4287 115.613 82.5715H114.618C114.475 82 114.049 81.5716 113.479 81.5716C112.768 81.5716 112.199 82.1429 112.199 83.2859C112.199 84.2858 112.626 85.0001 113.479 85.0001C114.049 85.0001 114.475 84.7144 114.618 84.1429H115.613C115.471 85.2859 114.618 85.8572 113.479 85.8572C112.057 85.8572 111.203 84.8573 111.203 83.2859Z" fill="white"/>
<g filter="url(#filter2_d_1104_3300)">
<path d="M157.791 45.6734H105.437C103.872 45.6734 102.733 44.3877 102.733 42.9592V9.95916C102.733 8.38773 104.014 7.24487 105.437 7.24487H157.791C159.357 7.24487 160.494 8.53058 160.494 9.95916V42.9592C160.494 44.5306 159.214 45.6734 157.791 45.6734Z" fill="url(#paint3_linear_1104_3300)"/>
</g>
<path d="M131.69 25.4286C134.911 25.4286 137.524 22.8064 137.524 19.5715C137.524 16.3367 134.911 13.7144 131.69 13.7144C128.469 13.7144 125.857 16.3367 125.857 19.5715C125.857 22.8064 128.469 25.4286 131.69 25.4286Z" fill="white"/>
<path d="M150.043 32.2855H113.48C112.91 32.2855 112.484 31.8571 112.484 31.2856C112.484 30.7141 112.91 30.2856 113.48 30.2856H149.9C150.47 30.2856 150.897 30.7141 150.897 31.2856C151.039 31.8571 150.613 32.2855 150.043 32.2855Z" fill="white"/>
<path d="M150.043 40H113.48C112.91 40 112.484 39.5714 112.484 39.0001C112.484 38.4286 112.91 38 113.48 38H149.9C150.47 38 150.897 38.4286 150.897 39.0001C151.039 39.5714 150.613 40 150.043 40Z" fill="white"/>
<defs>
<filter id="filter0_d_1104_3300" x="0" y="12.8572" width="195.944" height="142.429" filterUnits="userSpaceOnUse" color-interpolation-filters="sRGB">
<feFlood flood-opacity="0" result="BackgroundImageFix"/>
<feColorMatrix in="SourceAlpha" type="matrix" values="0 0 0 0 0 0 0 0 0 0 0 0 0 0 0 0 0 0 127 0" result="hardAlpha"/>
<feOffset dy="11"/>
<feGaussianBlur stdDeviation="11"/>
<feColorMatrix type="matrix" values="0 0 0 0 0.397708 0 0 0 0 0.47749 0 0 0 0 0.575 0 0 0 0.18 0"/>
<feBlend mode="normal" in2="BackgroundImageFix" result="effect1_dropShadow_1104_3300"/>
<feBlend mode="normal" in="SourceGraphic" in2="effect1_dropShadow_1104_3300" result="shape"/>
</filter>
<filter id="filter1_d_1104_3300" x="135.867" y="50.5713" width="81.133" height="91.7144" filterUnits="userSpaceOnUse" color-interpolation-filters="sRGB">
<feFlood flood-opacity="0" result="BackgroundImageFix"/>
<feColorMatrix in="SourceAlpha" type="matrix" values="0 0 0 0 0 0 0 0 0 0 0 0 0 0 0 0 0 0 127 0" result="hardAlpha"/>
<feOffset dy="11"/>
<feGaussianBlur stdDeviation="11"/>
<feColorMatrix type="matrix" values="0 0 0 0 0.397708 0 0 0 0 0.47749 0 0 0 0 0.575 0 0 0 0.18 0"/>
<feBlend mode="normal" in2="BackgroundImageFix" result="effect1_dropShadow_1104_3300"/>
<feBlend mode="normal" in="SourceGraphic" in2="effect1_dropShadow_1104_3300" result="shape"/>
</filter>
<filter id="filter2_d_1104_3300" x="94.7334" y="4.24487" width="73.761" height="54.4285" filterUnits="userSpaceOnUse" color-interpolation-filters="sRGB">
<feFlood flood-opacity="0" result="BackgroundImageFix"/>
<feColorMatrix in="SourceAlpha" type="matrix" values="0 0 0 0 0 0 0 0 0 0 0 0 0 0 0 0 0 0 127 0" result="hardAlpha"/>
<feOffset dy="5"/>
<feGaussianBlur stdDeviation="4"/>
<feColorMatrix type="matrix" values="0 0 0 0 0.1125 0 0 0 0 0.295916 0 0 0 0 1 0 0 0 0.22 0"/>
<feBlend mode="normal" in2="BackgroundImageFix" result="effect1_dropShadow_1104_3300"/>
<feBlend mode="normal" in="SourceGraphic" in2="effect1_dropShadow_1104_3300" result="shape"/>
</filter>
<linearGradient id="paint0_linear_1104_3300" x1="148.622" y1="83.4377" x2="169.558" y2="83.4377" gradientUnits="userSpaceOnUse">
<stop stop-color="#22ECBB"/>
<stop offset="1" stop-color="#21BFAC"/>
</linearGradient>
<linearGradient id="paint1_linear_1104_3300" x1="46.0454" y1="83.2946" x2="66.9825" y2="83.2946" gradientUnits="userSpaceOnUse">
<stop stop-color="#22ECBB"/>
<stop offset="1" stop-color="#21BFAC"/>
</linearGradient>
<linearGradient id="paint2_linear_1104_3300" x1="97.1201" y1="83.2946" x2="118.057" y2="83.2946" gradientUnits="userSpaceOnUse">
<stop stop-color="#22ECBB"/>
<stop offset="1" stop-color="#21BFAC"/>
</linearGradient>
<linearGradient id="paint3_linear_1104_3300" x1="102.733" y1="26.4591" x2="160.494" y2="26.4591" gradientUnits="userSpaceOnUse">
<stop stop-color="#FF5050"/>
<stop offset="1" stop-color="#CE097F"/>
</linearGradient>
</defs>
</svg>
