<svg width="28" height="28" viewBox="0 0 28 28" fill="none" xmlns="http://www.w3.org/2000/svg">
<path fill-rule="evenodd" clip-rule="evenodd" d="M11.0005 10.4639H15.3335V12.6222C15.9577 11.3809 17.5583 10.2655 19.9628 10.2655C24.5723 10.2655 25.6667 12.7365 25.6667 17.2702V25.6667H21V18.3027C21 15.7209 20.3758 14.2649 18.7868 14.2649C16.583 14.2649 15.6672 15.834 15.6672 18.3015V25.6667H11.0005V10.4639ZM2.99834 25.4684H7.66501V10.2655H2.99834V25.4684ZM8.33351 5.30837C8.33368 5.69953 8.25611 6.08681 8.1053 6.44773C7.95448 6.80864 7.73344 7.13597 7.45501 7.41071C6.89081 7.97144 6.12712 8.2853 5.33168 8.28337C4.53763 8.28284 3.77571 7.96977 3.21068 7.41187C2.93326 7.13621 2.71296 6.8085 2.56241 6.44754C2.41186 6.08659 2.33402 5.69947 2.33334 5.30837C2.33334 4.51854 2.64834 3.76254 3.21184 3.20487C3.77638 2.64623 4.53862 2.33302 5.33284 2.33337C6.12851 2.33337 6.89151 2.64721 7.45501 3.20487C8.01734 3.76254 8.33351 4.51854 8.33351 5.30837Z" fill="white"/>
</svg>
