<svg width="74" height="74" viewBox="0 0 74 74" fill="none" xmlns="http://www.w3.org/2000/svg">
<path d="M31.0222 73.1112C11.1555 69.9112 -2.40003 51.1112 0.799974 31.2446C3.99997 11.3779 22.8 -2.17768 42.6666 1.02233C43.2889 1.11121 43.9111 1.24455 44.4889 1.37788L43.9111 4.17788C43.3333 4.04455 42.8 3.95566 42.2222 3.86677C23.9111 0.888993 6.57775 13.4223 3.59997 31.7334C0.622196 50.0446 13.1555 67.3779 31.4666 70.3557C49.7778 73.3335 67.1111 60.8001 70.0889 42.489C71.3333 34.889 69.9111 27.0668 66.0889 20.4001L68.5778 18.9779C72.7111 26.1779 74.2666 34.7112 72.9333 42.9334C69.6889 62.7557 50.9333 76.3557 31.0222 73.1112Z" fill="white"/>
<path d="M22.4444 51.5113C14.4444 43.5558 14.4444 30.578 22.4444 22.6224C30.4 14.6669 43.3777 14.6669 51.3333 22.6224L49.3333 24.6224C42.4444 17.778 31.2888 17.778 24.4444 24.6224C17.6 31.4669 17.6 42.6224 24.4444 49.4669C31.2888 56.3113 42.4444 56.3113 49.2888 49.4669C49.7777 48.978 50.2222 48.4446 50.6666 47.9113L52.8888 49.6891C52.4 50.3113 51.8666 50.8891 51.2888 51.4669C43.3333 59.4669 30.4 59.4669 22.4444 51.5113Z" fill="white"/>
<path d="M61.7333 23.5113C56.4888 13.8224 46.3999 8.13353 35.3777 8.62241L35.5111 11.4669C45.4222 11.0224 54.5333 16.1335 59.2444 24.8446C65.9999 37.2891 61.3777 52.8891 48.9333 59.6446C36.4888 66.4002 20.8888 61.778 14.1333 49.3335C9.24439 40.3113 10.3555 29.6891 16.0444 21.9113L13.5555 20.4446C7.37773 29.0669 6.22217 40.8002 11.5999 50.7557C19.1111 64.578 36.4444 69.6891 50.2666 62.2224C64.0888 54.6669 69.2444 37.2891 61.7333 23.5113Z" fill="white"/>
</svg>
