<svg width="28" height="28" viewBox="0 0 28 28" fill="none" xmlns="http://www.w3.org/2000/svg">
<path d="M27.5835 5.75976C26.6093 6.19143 25.5628 6.48309 24.4627 6.61493C25.5978 5.93568 26.4471 4.86664 26.852 3.60726C25.7855 4.24075 24.6182 4.68665 23.401 4.92559C22.5824 4.0516 21.4982 3.47231 20.3167 3.27765C19.1352 3.08299 17.9225 3.28385 16.8668 3.84906C15.8111 4.41426 14.9716 5.31218 14.4785 6.40341C13.9855 7.49465 13.8665 8.71814 14.14 9.88393C11.979 9.77542 9.8649 9.21374 7.935 8.23532C6.00509 7.2569 4.30248 5.88362 2.93767 4.20459C2.471 5.00959 2.20267 5.94293 2.20267 6.93693C2.20215 7.83176 2.42251 8.71288 2.8442 9.50212C3.26588 10.2914 3.87586 10.9643 4.62 11.4613C3.75699 11.4338 2.91302 11.2006 2.15834 10.7811V10.8511C2.15825 12.1061 2.59238 13.3225 3.38705 14.2939C4.18173 15.2653 5.288 15.9318 6.51817 16.1804C5.71758 16.3971 4.87823 16.429 4.0635 16.2738C4.41058 17.3536 5.08667 18.298 5.9971 18.9745C6.90753 19.6511 8.00674 20.026 9.14084 20.0468C7.21564 21.5581 4.83804 22.3779 2.3905 22.3743C1.95695 22.3744 1.52376 22.3491 1.09317 22.2984C3.57756 23.8958 6.46957 24.7436 9.42317 24.7403C19.4215 24.7403 24.8873 16.4593 24.8873 9.27726C24.8873 9.04393 24.8815 8.80826 24.871 8.57493C25.9342 7.80606 26.8519 6.85397 27.5812 5.76326L27.5835 5.75976Z" fill="white"/>
</svg>
